<?xml version="1.0" encoding="utf-8"?>
<!-- Generator: Adobe Illustrator 22.1.0, SVG Export Plug-In . SVG Version: 6.00 Build 0)  -->
<svg version="1.1" id="Capa_1" xmlns="http://www.w3.org/2000/svg" xmlns:xlink="http://www.w3.org/1999/xlink" x="0px" y="0px"
	 viewBox="0 0 309 44.9" style="enable-background:new 0 0 309 44.9;" xml:space="preserve">
<style type="text/css">
	.st0{fill:#C8F0FA;}
	.st1{fill:#A4E6F6;}
	.st2{fill:#6ED8F1;}
	.st3{fill:#4ACEED;}
	.st4{fill:#1D1D1B;}
	.st5{fill:#FFFFFF;}
</style>
<title>Asset 1</title>
<g>
	<path class="st0" d="M291.6,2.2c6.7,4.3,11.2,11.7,11.2,20.2c0,8.5-4.5,16-11.2,20.2c9.1-2.3,15.8-10.5,15.8-20.2
		C307.4,12.7,300.7,4.5,291.6,2.2z"/>
	<path class="st1" d="M283.8,2.2c6.7,4.3,11.2,11.7,11.2,20.2c0,8.5-4.5,16-11.2,20.2c9.1-2.3,15.8-10.5,15.8-20.2
		C299.6,12.7,292.9,4.5,283.8,2.2z"/>
	<path class="st2" d="M276.1,2.2c6.7,4.3,11.2,11.7,11.2,20.2c0,8.5-4.5,16-11.2,20.2c9.1-2.3,15.8-10.5,15.8-20.2
		C291.9,12.7,285.1,4.5,276.1,2.2z"/>
	<path class="st3" d="M263.3,1.6c-11.5,0-20.9,9.3-20.9,20.9c0,11.5,9.3,20.9,20.9,20.9c11.5,0,20.9-9.3,20.9-20.9
		C284.1,10.9,274.8,1.6,263.3,1.6"/>
	<g>
		<path class="st4" d="M1.6,22.8v-0.1c0-10.9,8.1-20.1,19.2-20.1c7.2,0,11.1,2.7,14.9,6.1l-1.3,1.4C31.1,7,27.2,4.3,20.7,4.3
			c-9.9,0-17.2,8.3-17.2,18.3v0.1C3.6,32.7,11,41,20.8,41c6,0,10.4-2.7,13.8-6.2l1.3,1.3c-3.7,3.7-8.4,6.6-15.2,6.6
			C9.7,42.7,1.6,33.8,1.6,22.8"/>
	</g>
	<rect x="46" y="3.3" class="st4" width="1.9" height="38.8"/>
	<g>
		<path class="st4" d="M59.6,3.3h13.8c9.1,0,14.7,4.4,14.7,11.7v0.1c0,7.8-6.3,12-15.1,12H61.5V42h-1.9V3.3z M73.1,25.4
			c8,0,13.2-3.8,13.2-10.2v-0.1c0-6.4-5-10.1-13-10.1H61.5v20.4H73.1z"/>
		<path class="st4" d="M96.9,3.3h13.9c9.1,0,14.7,4.4,14.7,11.7v0.1c0,7.8-6.3,12-15.1,12H98.8V42h-1.9V3.3z M110.4,25.4
			c8,0,13.2-3.8,13.2-10.2v-0.1c0-6.4-5-10.1-13-10.1H98.8v20.4H110.4z"/>
	</g>
	<polygon class="st4" points="134,3.3 161.3,3.3 161.3,5 135.8,5 135.8,21.7 158.8,21.7 158.8,23.4 135.8,23.4 135.8,40.3 
		161.5,40.3 161.5,42 134,42 	"/>
	<g>
		<path class="st4" d="M168.4,22.8v-0.1c0-10.9,8.1-20.1,19.2-20.1c7.2,0,11.1,2.7,14.9,6.1l-1.3,1.4c-3.2-3.1-7.1-5.8-13.6-5.8
			c-9.9,0-17.2,8.3-17.2,18.3v0.1c0,10,7.4,18.3,17.2,18.3c6,0,10.4-2.7,13.8-6.2l1.3,1.3c-3.7,3.7-8.4,6.6-15.2,6.6
			C176.5,42.7,168.4,33.8,168.4,22.8"/>
	</g>
	<g>
		<path class="st3" d="M209.1,36.6l13.5-11.5c5.4-4.5,7.4-7.1,7.4-10.6c0-3.9-2.8-6.1-6.3-6.1c-3.6,0-6.1,2-9.1,5.9l-4.9-3.8
			c3.8-5.3,7.5-8.3,14.5-8.3c7.7,0,13,4.7,13,11.7V14c0,6.2-3.3,9.5-10.2,15.2l-8.1,6.7h18.7V42h-28.4V36.6z"/>
	</g>
	<path class="st5" d="M267.6,12.2h-6.2h-0.3h-0.3h-6.5H254v0.3v20v0.3h0.3h1h0.3v-0.3v-7.4h5.3v7.4v0.3h0.3h1h0.3v-0.3v-7.4h5
		c5,0,8.1-2.5,8.1-6.5C275.5,14.6,272.5,12.2,267.6,12.2z M260.8,23.6h-5.3v-9.9h5.3V23.6z M262.4,23.5v-9.8c3.4,0.3,5.3,2,5.3,4.8
		C267.7,21.4,265.7,23.2,262.4,23.5z M267.4,23.6h-0.7c1.6-1.1,2.5-2.8,2.5-5c0-2.1-0.9-3.8-2.5-4.9h0.7c4,0,6.4,1.8,6.4,4.9
		C273.9,21.7,271.5,23.6,267.4,23.6z"/>
</g>
</svg>
